<?xml version="1.0"?>
<svg xmlns="http://www.w3.org/2000/svg" xmlns:xlink="http://www.w3.org/1999/xlink" xmlns:svgjs="http://svgjs.com/svgjs" version="1.1" width="512" height="512" x="0" y="0" viewBox="0 0 503.163 503.163" style="enable-background:new 0 0 512 512" xml:space="preserve" class=""><g>
<g xmlns="http://www.w3.org/2000/svg">
	<g>
		<path d="M471.163,0.019H309.328c-8.427,0-16.683,3.413-22.635,9.365L9.36,286.717c-12.48,12.48-12.48,32.768,0,45.248    L171.195,493.8c6.229,6.229,14.443,9.344,22.635,9.344c8.171,0,16.384-3.115,22.635-9.323l277.333-277.333    c6.037-6.059,9.365-14.101,9.365-22.635V32.019C503.163,14.376,488.805,0.019,471.163,0.019z M481.808,193.832    c0,2.816-1.131,5.568-3.115,7.552L201.36,478.717c-4.16,4.16-10.923,4.16-15.083,0L24.443,316.883    c-4.16-4.16-4.16-10.923,0-15.083L301.776,24.467c1.984-1.984,4.736-3.115,7.552-3.115h161.813    c5.867,0,10.667,4.779,10.667,10.667V193.832z" fill="#ffffff" data-original="#000000" style="" class=""/>
	</g>
</g>
<g xmlns="http://www.w3.org/2000/svg">
	<g>
		<path d="M385.829,64.019c-29.419,0-53.333,23.936-53.333,53.333s23.915,53.333,53.333,53.333    c29.419,0,53.333-23.936,53.333-53.333S415.248,64.019,385.829,64.019z M385.829,149.352c-17.643,0-32-14.357-32-32    c0-17.643,14.357-32,32-32c17.643,0,32,14.357,32,32C417.829,134.995,403.472,149.352,385.829,149.352z" fill="#ffffff" data-original="#000000" style="" class=""/>
	</g>
</g>
<g xmlns="http://www.w3.org/2000/svg">
</g>
<g xmlns="http://www.w3.org/2000/svg">
</g>
<g xmlns="http://www.w3.org/2000/svg">
</g>
<g xmlns="http://www.w3.org/2000/svg">
</g>
<g xmlns="http://www.w3.org/2000/svg">
</g>
<g xmlns="http://www.w3.org/2000/svg">
</g>
<g xmlns="http://www.w3.org/2000/svg">
</g>
<g xmlns="http://www.w3.org/2000/svg">
</g>
<g xmlns="http://www.w3.org/2000/svg">
</g>
<g xmlns="http://www.w3.org/2000/svg">
</g>
<g xmlns="http://www.w3.org/2000/svg">
</g>
<g xmlns="http://www.w3.org/2000/svg">
</g>
<g xmlns="http://www.w3.org/2000/svg">
</g>
<g xmlns="http://www.w3.org/2000/svg">
</g>
<g xmlns="http://www.w3.org/2000/svg">
</g>
</g></svg>
