<?xml version="1.0"?>
<svg xmlns="http://www.w3.org/2000/svg" xmlns:xlink="http://www.w3.org/1999/xlink" xmlns:svgjs="http://svgjs.com/svgjs" version="1.1" width="512" height="512" x="0" y="0" viewBox="0 0 512 512" style="enable-background:new 0 0 512 512" xml:space="preserve" class=""><g><path xmlns="http://www.w3.org/2000/svg" d="m452 0h-392c-33.085938 0-60 26.914062-60 60v352c0 33.085938 26.914062 60 60 60h392c33.085938 0 60-26.914062 60-60v-352c0-33.085938-26.914062-60-60-60zm-392 40h392c11.027344 0 20 8.972656 20 20v60h-432v-60c0-11.027344 8.972656-20 20-20zm392 392h-392c-11.027344 0-20-8.972656-20-20v-252h432v252c0 11.027344-8.972656 20-20 20zm-382-352c0-11.046875 8.953125-20 20-20s20 8.953125 20 20-8.953125 20-20 20-20-8.953125-20-20zm70 0c0-11.046875 8.953125-20 20-20s20 8.953125 20 20-8.953125 20-20 20-20-8.953125-20-20zm206.640625 105.859375 70.144531 70.140625-70.144531 70.140625-28.28125-28.28125 21.855469-21.859375h-105.214844v-40h105.214844l-21.855469-21.859375zm-174.855469 130.140625h103.214844v40h-103.214844l21.855469 21.859375-28.28125 28.28125-70.144531-70.140625 70.144531-70.140625 28.28125 28.28125zm0 0" fill="#ffffff" data-original="#000000" style="" class=""/></g></svg>
